<?xml version="1.0" standalone="no"?>
<!DOCTYPE svg PUBLIC "-//W3C//DTD SVG 20010904//EN"
 "http://www.w3.org/TR/2001/REC-SVG-20010904/DTD/svg10.dtd">
<svg version="1.0" xmlns="http://www.w3.org/2000/svg"
 width="210.000000pt" height="210.000000pt" viewBox="0 0 210.000000 210.000000"
 preserveAspectRatio="xMidYMid meet">
<metadata>
Created by potrace 1.11, written by Peter Selinger 2001-2013
</metadata>
<g transform="translate(0.000000,210.000000) scale(0.100000,-0.100000)"
fill="#000000" stroke="none">
<path d="M925 1908 c-152 -37 -196 -53 -274 -100 -225 -135 -352 -317 -411
-588 -23 -107 0 -324 45 -427 35 -78 41 -90 82 -155 99 -156 281 -294 453
-340 122 -34 167 -40 260 -35 168 8 307 53 440 140 55 37 220 204 220 223 0 8
3 14 8 14 4 0 25 37 46 83 44 93 50 106 64 162 43 168 42 242 -6 425 -35 132
-130 290 -228 379 -161 147 -341 220 -559 226 -55 2 -118 -1 -140 -7z m330
-48 c146 -37 265 -107 370 -216 101 -105 141 -171 191 -319 25 -73 27 -94 28
-230 0 -162 -14 -233 -72 -355 -170 -360 -594 -534 -978 -401 -349 120 -564
463 -525 837 26 246 161 460 376 595 174 110 401 143 610 89z"/>
<path d="M1004 1633 c-10 -10 -37 -31 -59 -48 -22 -16 -47 -35 -55 -42 -14
-12 -122 -95 -234 -181 -26 -20 -53 -42 -60 -48 -6 -6 -18 -15 -27 -20 -9 -5
-35 -25 -59 -44 -23 -19 -56 -45 -71 -58 -24 -19 -27 -27 -19 -43 9 -17 22
-19 105 -19 88 0 95 -1 95 -20 0 -14 -14 -26 -42 -40 -93 -45 -140 -112 -140
-200 0 -30 7 -71 15 -90 21 -47 76 -99 123 -115 37 -12 39 -16 44 -62 l5 -48
423 -3 422 -2 0 290 0 290 105 0 c125 0 140 12 84 64 -34 31 -50 44 -141 112
l-48 36 0 134 c0 156 1 154 -105 154 -94 0 -105 -8 -105 -77 0 -54 -1 -55 -17
-37 -10 11 -43 37 -73 59 -30 22 -64 48 -74 57 -25 23 -67 23 -92 1z m82 -61
c18 -17 175 -141 274 -217 163 -125 209 -163 203 -169 -3 -3 -241 -6 -527 -6
l-521 1 35 30 c19 17 115 92 214 167 98 75 199 154 225 174 53 42 69 45 97 20z
m342 -91 c4 -116 2 -118 -55 -75 -27 19 -54 43 -60 52 -14 17 -18 94 -6 106 4
4 32 6 63 4 l55 -3 3 -84z m-80 -348 l82 -6 0 -264 c0 -202 -3 -265 -12 -268
-7 -3 -56 -6 -108 -8 l-95 -2 -3 180 c-2 128 -6 181 -15 187 -6 4 -74 8 -149
8 -126 0 -138 -2 -148 -19 -6 -12 -10 -92 -10 -191 l0 -171 -107 3 -108 3 -3
35 c-3 34 -1 36 44 49 111 33 175 168 130 276 -16 37 -91 115 -112 115 -30 0
-64 24 -64 45 0 12 3 25 7 28 8 9 561 9 671 0z m-604 -130 c44 -34 66 -79 66
-138 0 -69 -27 -115 -84 -140 -108 -48 -218 10 -233 124 -9 63 49 154 109 173
36 11 116 1 142 -19z m424 -249 l2 -161 -46 -7 c-26 -3 -80 -6 -120 -6 l-74 0
0 163 c0 90 3 167 7 171 4 3 57 5 117 4 l111 -3 3 -161z"/>
<path d="M640 973 c-56 -21 -67 -75 -20 -101 37 -21 36 -48 -3 -44 -35 4 -37
-25 -3 -38 13 -5 29 -17 34 -26 9 -15 12 -16 25 -3 8 8 24 22 36 31 31 26 27
62 -9 88 -35 25 -40 53 -8 48 33 -5 33 19 -1 36 -16 9 -31 16 -33 15 -2 0 -10
-3 -18 -6z m10 -52 c0 -6 -4 -13 -10 -16 -5 -3 -10 1 -10 9 0 9 5 16 10 16 6
0 10 -4 10 -9z m40 -85 c0 -3 -4 -8 -10 -11 -5 -3 -10 -1 -10 4 0 6 5 11 10
11 6 0 10 -2 10 -4z"/>
</g>
</svg>
